{
  "accessors": [
    {
      "bufferView": 0,
      "byteOffset": 0,
      "componentType": 5123,
      "count": 1692,
      "max": [
        945.0
      ],
      "min": [
        0.0
      ],
      "name": "buffer-0-group-0-mesh-0-indices",
      "type": "SCALAR"
    },
    {
      "bufferView": 1,
      "byteOffset": 0,
      "componentType": 5126,
      "count": 946,
      "max": [
        1.9980659484863281,
        3.0927059650421143,
        2.014885902404785
      ],
      "min": [
        -2.0019350051879883,
        -0.0,
        -1.9851139783859253
      ],
      "name": "buffer-0-group-0-mesh-0-position",
      "type": "VEC3"
    },
    {
      "bufferView": 1,
      "byteOffset": 11352,
      "componentType": 5126,
      "count": 946,
      "max": [
        0.8399482369422913,
        0.548035740852356,
        0.8682492971420288
      ],
      "min": [
        -0.850517213344574,
        -1.0,
        -0.8398436903953552
      ],
      "name": "buffer-0-group-0-mesh-0-normal",
      "type": "VEC3"
    },
    {
      "bufferView": 0,
      "byteOffset": 3384,
      "componentType": 5123,
      "count": 2622,
      "max": [
        1666.0
      ],
      "min": [
        0.0
      ],
      "name": "buffer-0-group-1-mesh-0-indices",
      "type": "SCALAR"
    },
    {
      "bufferView": 1,
      "byteOffset": 22704,
      "componentType": 5126,
      "count": 1667,
      "max": [
        1.5362629890441895,
        3.0927059650421143,
        1.5529520511627197
      ],
      "min": [
        -2.0019350051879883,
        0.0,
        -1.9851139783859253
      ],
      "name": "buffer-0-group-1-mesh-0-position",
      "type": "VEC3"
    },
    {
      "bufferView": 1,
      "byteOffset": 42708,
      "componentType": 5126,
      "count": 1667,
      "max": [
        1.0,
        0.8397230505943298,
        0.9993007183074951
      ],
      "min": [
        -0.9993007183074951,
        -0.8397525548934937,
        -0.9993243217468262
      ],
      "name": "buffer-0-group-1-mesh-0-normal",
      "type": "VEC3"
    }
  ],
  "asset": {
    "generator": "Obj2GltfConverter",
    "version": "2.0"
  },
  "bufferViews": [
    {
      "buffer": 0,
      "byteLength": 8628,
      "byteOffset": 0,
      "name": "buffer-0-bufferview-ushort",
      "target": 34963
    },
    {
      "buffer": 0,
      "byteLength": 62712,
      "byteOffset": 8628,
      "byteStride": 12,
      "name": "buffer-0-bufferview-vec3",
      "target": 34962
    }
  ],
  "buffers": [
    {
      "byteLength": 71340,
      "name": "buffer-0",
      "uri": "error pyramid.bin"
    }
  ],
  "materials": [
    {
      "alphaMode": "OPAQUE",
      "doubleSided": true,
      "name": "Yellow_0",
      "pbrMetallicRoughness": {
        "baseColorFactor": [
          0.996078,
          0.945098,
          0.0,
          1.0
        ],
        "metallicFactor": 0.0,
        "roughnessFactor": 0.7448017359246658
      }
    },
    {
      "alphaMode": "OPAQUE",
      "doubleSided": true,
      "name": "Material.001",
      "pbrMetallicRoughness": {
        "baseColorFactor": [
          0.798514,
          0.0,
          0.0,
          1.0
        ],
        "metallicFactor": 0.0,
        "roughnessFactor": 0.7448017359246658
      }
    }
  ],
  "meshes": [
    {
      "name": "buffer-0-mesh-0",
      "primitives": [
        {
          "attributes": {
            "POSITION": 1,
            "NORMAL": 2
          },
          "indices": 0,
          "material": 0,
          "mode": 4
        },
        {
          "attributes": {
            "POSITION": 4,
            "NORMAL": 5
          },
          "indices": 3,
          "material": 1,
          "mode": 4
        }
      ]
    }
  ],
  "nodes": [
    {
      "mesh": 0,
      "name": "node-0"
    }
  ],
  "scenes": [
    {
      "name": "scene-0",
      "nodes": [
        0
      ]
    }
  ]
}